<svg width="128" height="128" viewBox="0 0 128 128" fill="none" xmlns="http://www.w3.org/2000/svg">
<rect width="128" height="128" fill="black"/>
<path d="M54.3777 46.8155V95.7949H47.3156V38.918H53.7702L54.3777 46.8155ZM82.0568 59.1173V59.9146C82.0568 62.9015 81.7024 65.6732 80.9937 68.2298C80.2849 70.761 79.2471 72.9632 77.8803 74.8363C76.5387 76.7094 74.8808 78.1649 72.9064 79.2027C70.932 80.2405 68.6666 80.7594 66.11 80.7594C63.5028 80.7594 61.1994 80.3291 59.1997 79.4684C57.2001 78.6078 55.5041 77.3549 54.112 75.7096C52.7198 74.0643 51.606 72.0899 50.7707 69.7865C49.9607 67.483 49.4039 64.8885 49.1001 62.0029V57.7504C49.4039 54.713 49.9734 51.9919 50.8087 49.5872C51.644 47.1825 52.7451 45.1322 54.112 43.4363C55.5041 41.7151 57.1874 40.4115 59.1618 39.5255C61.1361 38.6143 63.4143 38.1587 65.9961 38.1587C68.578 38.1587 70.8687 38.6649 72.8684 39.6774C74.8681 40.6646 76.5514 42.0821 77.9182 43.9299C79.2851 45.7777 80.3103 47.9925 80.9937 50.5744C81.7024 53.1309 82.0568 55.9786 82.0568 59.1173ZM74.9947 59.9146V59.1173C74.9947 57.067 74.7795 55.1433 74.3492 53.3461C73.9189 51.5236 73.2481 49.9289 72.3369 48.562C71.4509 47.1699 70.3119 46.0814 68.9197 45.2968C67.5275 44.4868 65.8696 44.0818 63.9458 44.0818C62.174 44.0818 60.6299 44.3855 59.3137 44.993C58.0227 45.6005 56.9216 46.4232 56.0104 47.461C55.0991 48.4735 54.3524 49.6378 53.7702 50.9541C53.2134 52.245 52.7957 53.5866 52.5173 54.9787V64.8126C53.0235 66.5844 53.7323 68.2551 54.6435 69.8244C55.5548 71.3685 56.7698 72.6214 58.2885 73.5833C59.8072 74.5199 61.7183 74.9882 64.0218 74.9882C65.9202 74.9882 67.5528 74.5958 68.9197 73.8111C70.3119 73.0011 71.4509 71.9 72.3369 70.5079C73.2481 69.1157 73.9189 67.521 74.3492 65.7238C74.7795 63.9013 74.9947 61.9649 74.9947 59.9146Z" fill="white"/>
</svg>
